<svg width="1280" height="720" xmlns="http://www.w3.org/2000/svg" xmlns:xlink="http://www.w3.org/1999/xlink" overflow="hidden"><g><rect x="0" y="0" width="1280" height="720" fill="#FFFFFF"/><rect x="269" y="85" width="742" height="387" fill="#064578"/><text fill="#FFFFFF" font-family="Calibri,Calibri_MSFontService,sans-serif" font-weight="400" font-size="24" transform="translate(348.623 126)">HL7</text><text fill="#FFFFFF" font-family="Calibri,Calibri_MSFontService,sans-serif" font-weight="400" font-size="24" transform="translate(385.957 126)">-</text><text fill="#FFFFFF" font-family="Calibri,Calibri_MSFontService,sans-serif" font-weight="400" font-size="24" transform="translate(393.29 126)">IHE SDPi Profiles for “PRACtical” Device Interoperability</text><rect x="442.5" y="154.5" width="396" height="117" stroke="#FFFFFF" stroke-width="1.33333" stroke-miterlimit="8" fill="#694DB7"/><text fill="#FFFFFF" font-family="Calibri,Calibri_MSFontService,sans-serif" font-weight="400" font-size="24" transform="translate(481.043 206)">SDPi Plug</text><text fill="#FFFFFF" font-family="Calibri,Calibri_MSFontService,sans-serif" font-weight="400" font-size="24" transform="translate(572.043 206)">-</text><text fill="#FFFFFF" font-family="Calibri,Calibri_MSFontService,sans-serif" font-weight="400" font-size="24" transform="translate(579.377 206)">and</text><text fill="#FFFFFF" font-family="Calibri,Calibri_MSFontService,sans-serif" font-weight="400" font-size="24" transform="translate(616.21 206)">-</text><text fill="#FFFFFF" font-family="Calibri,Calibri_MSFontService,sans-serif" font-weight="400" font-size="24" transform="translate(623.543 206)">Trust</text><text fill="#FFFFFF" font-family="Calibri,Calibri_MSFontService,sans-serif" font-weight="400" font-size="24" transform="translate(677.29 206)">Connectivity</text><text fill="#FFFFFF" font-family="Calibri,Calibri_MSFontService,sans-serif" font-weight="400" font-size="24" transform="translate(600.997 235)">(SDPi</text><text fill="#FFFFFF" font-family="Calibri,Calibri_MSFontService,sans-serif" font-weight="400" font-size="24" transform="translate(651.997 235)">-</text><text fill="#FFFFFF" font-family="Calibri,Calibri_MSFontService,sans-serif" font-weight="400" font-size="24" transform="translate(659.33 235)">P)</text><rect x="779.5" y="324.5" width="181" height="117" stroke="#FFFFFF" stroke-width="1.33333" stroke-miterlimit="8" fill="#694DB7"/><text fill="#FFFFFF" font-family="Calibri,Calibri_MSFontService,sans-serif" font-weight="400" font-size="24" transform="translate(805.278 361)">SDPi external</text><text fill="#FFFFFF" font-family="Calibri,Calibri_MSFontService,sans-serif" font-weight="400" font-size="24" transform="translate(833.725 390)">Control</text><text fill="#FFFFFF" font-family="Calibri,Calibri_MSFontService,sans-serif" font-weight="400" font-size="24" transform="translate(825.338 419)">(SDPi</text><text fill="#FFFFFF" font-family="Calibri,Calibri_MSFontService,sans-serif" font-weight="400" font-size="24" transform="translate(876.338 419)">-</text><text fill="#FFFFFF" font-family="Calibri,Calibri_MSFontService,sans-serif" font-weight="400" font-size="24" transform="translate(883.671 419)">xC</text><text fill="#FFFFFF" font-family="Calibri,Calibri_MSFontService,sans-serif" font-weight="400" font-size="24" transform="translate(906.838 419)">)</text><rect x="320.5" y="322.5" width="181" height="117" stroke="#FFFFFF" stroke-width="1.33333" stroke-miterlimit="8" fill="#694DB7"/><text fill="#FFFFFF" font-family="Calibri,Calibri_MSFontService,sans-serif" font-weight="400" font-size="24" transform="translate(337.988 374)">SDPi</text><text fill="#FFFFFF" font-family="Calibri,Calibri_MSFontService,sans-serif" font-weight="400" font-size="24" transform="translate(387.154 374)">Reporting</text><text fill="#FFFFFF" font-family="Calibri,Calibri_MSFontService,sans-serif" font-weight="400" font-size="24" transform="translate(371.108 403)">(SDPi</text><text fill="#FFFFFF" font-family="Calibri,Calibri_MSFontService,sans-serif" font-weight="400" font-size="24" transform="translate(422.108 403)">-</text><text fill="#FFFFFF" font-family="Calibri,Calibri_MSFontService,sans-serif" font-weight="400" font-size="24" transform="translate(429.441 403)">R)</text><rect x="550.5" y="324.5" width="180" height="117" stroke="#FFFFFF" stroke-width="1.33333" stroke-miterlimit="8" fill="#694DB7"/><text fill="#FFFFFF" font-family="Calibri,Calibri_MSFontService,sans-serif" font-weight="400" font-size="24" transform="translate(576.833 376)">SDPi</text><text fill="#FFFFFF" font-family="Calibri,Calibri_MSFontService,sans-serif" font-weight="400" font-size="24" transform="translate(626 376)">Alerting</text><text fill="#FFFFFF" font-family="Calibri,Calibri_MSFontService,sans-serif" font-weight="400" font-size="24" transform="translate(600.253 405)">(SDPi</text><text fill="#FFFFFF" font-family="Calibri,Calibri_MSFontService,sans-serif" font-weight="400" font-size="24" transform="translate(651.253 405)">-</text><text fill="#FFFFFF" font-family="Calibri,Calibri_MSFontService,sans-serif" font-weight="400" font-size="24" transform="translate(658.586 405)">A)</text><rect x="300" y="308" width="681" height="150" stroke="#92D050" stroke-width="2" stroke-miterlimit="8" stroke-dasharray="8 6" fill="none"/><path d="M793.453 274.496 870.878 322.789 869.114 325.617 791.689 277.324ZM791.339 281.035 785.5 271.5 796.631 272.55Z" fill="#FFFFFF"/><path d="M642.167 279.833 642.167 324.203 638.833 324.203 638.833 279.833ZM635.5 281.5 640.5 271.5 645.5 281.5Z" fill="#FFFFFF"/><path d="M8.01429 2.82728 86.048 49.2371 84.3441 52.1021 6.3104 5.69221ZM6.03896 9.40909 0 0 11.1506 0.814284Z" fill="#FFFFFF" transform="matrix(-1 0 0 1 495.696 271.5)"/><text fill="#76A32E" font-family="Calibri,Calibri_MSFontService,sans-serif" font-weight="400" font-size="24" transform="translate(1075.44 484)">“medical”</text><text fill="#76A32E" font-family="Calibri,Calibri_MSFontService,sans-serif" font-weight="400" font-size="24" transform="translate(1048.44 513)">interoperability</text><text fill="#76A32E" font-family="Calibri,Calibri_MSFontService,sans-serif" font-weight="400" font-size="24" transform="translate(1083.43 542)">purpose</text><rect x="270.5" y="497.5" width="181" height="77" stroke="#FFFFFF" stroke-width="1.33333" stroke-miterlimit="8" fill="#AD1F2F"/><text fill="#FFFFFF" font-family="Calibri,Calibri_MSFontService,sans-serif" font-weight="400" font-size="24" transform="translate(316.653 529)">HL7 FHIR</text><text fill="#FFFFFF" font-family="Calibri,Calibri_MSFontService,sans-serif" font-weight="400" font-size="24" transform="translate(321.14 558)">PoCD</text><text fill="#FFFFFF" font-family="Calibri,Calibri_MSFontService,sans-serif" font-weight="400" font-size="24" transform="translate(378.827 558)">IG</text><rect x="270.5" y="597.5" width="181" height="76" stroke="#FFFFFF" stroke-width="1.33333" stroke-miterlimit="8" fill="#AD1F2F"/><text fill="#FFFFFF" font-family="Calibri,Calibri_MSFontService,sans-serif" font-weight="400" font-size="24" transform="translate(316.531 628)">HL7 FHIR</text><text fill="#FFFFFF" font-family="Calibri,Calibri_MSFontService,sans-serif" font-weight="400" font-size="24" transform="translate(285.571 657)">Core Resources</text><rect x="731" y="497" width="280" height="77" fill="#76A32E"/><text fill="#FFFFFF" font-family="Calibri,Calibri_MSFontService,sans-serif" font-weight="400" font-size="24" transform="translate(828.341 529)">IEEE SDC</text><text fill="#FFFFFF" font-family="Calibri,Calibri_MSFontService,sans-serif" font-weight="400" font-size="24" transform="translate(801.067 558)">PKP Standards</text><rect x="730.5" y="598.5" width="281" height="76" stroke="#FFFFFF" stroke-width="1.33333" stroke-miterlimit="8" fill="#064578"/><text fill="#FFFFFF" font-family="Calibri,Calibri_MSFontService,sans-serif" font-weight="400" font-size="24" transform="translate(827.769 629)">IEEE SDC</text><text fill="#FFFFFF" font-family="Calibri,Calibri_MSFontService,sans-serif" font-weight="400" font-size="24" transform="translate(796.322 658)">Core Standards</text><rect x="500.5" y="498.5" width="82" height="76" stroke="#FFFFFF" stroke-width="1.33333" stroke-miterlimit="8" fill="#EE2E24"/><text fill="#FFFFFF" font-family="Calibri,Calibri_MSFontService,sans-serif" font-weight="400" font-size="24" transform="translate(524.329 529)">IHE</text><text fill="#FFFFFF" font-family="Calibri,Calibri_MSFontService,sans-serif" font-weight="400" font-size="24" transform="translate(521.136 558)">DEC</text><rect x="500.5" y="597.5" width="180" height="76" stroke="#FFFFFF" stroke-width="1.33333" stroke-miterlimit="8" fill="#EE2E24"/><text fill="#FFFFFF" font-family="Calibri,Calibri_MSFontService,sans-serif" font-weight="400" font-size="24" transform="translate(555.663 628)">HL7 V2</text><text fill="#FFFFFF" font-family="Calibri,Calibri_MSFontService,sans-serif" font-weight="400" font-size="24" transform="translate(538.25 657)">Messaging</text><path d="M1.66619-0.039703 2.0365 15.5006-1.29589 15.58-1.66619 0.039703ZM5.32918 13.755 0.568819 23.8713-4.66798 13.9932Z" fill="#064578" transform="matrix(-1 0 0 1 871.069 574.5)"/><path d="M542.167 574.5 542.167 592.415 540.833 592.415 540.833 574.5ZM545.5 591.081 541.5 599.081 537.5 591.081Z"/><path d="M0.666657-0.00360475 0.756594 16.6291-0.57672 16.6364-0.666657 0.00360475ZM4.08267 15.2778 0.125984 23.2993-3.91721 15.3211Z" transform="matrix(-1 0 0 1 360.626 574.5)"/><rect x="598.5" y="498.5" width="82" height="76" stroke="#FFFFFF" stroke-width="1.33333" stroke-miterlimit="8" fill="#EE2E24"/><text fill="#FFFFFF" font-family="Calibri,Calibri_MSFontService,sans-serif" font-weight="400" font-size="24" transform="translate(623 529)">IHE</text><text fill="#FFFFFF" font-family="Calibri,Calibri_MSFontService,sans-serif" font-weight="400" font-size="24" transform="translate(615.84 558)">ACM</text><path d="M640.166 574.477 640.795 592.395 639.462 592.442 638.834 574.523ZM644.079 590.946 640.362 599.081 636.084 591.226Z"/><path d="M0.66662-0.0078559 1.25158 49.6294-0.0816622 49.6451-0.66662 0.0078559ZM4.56897 48.2568 0.663517 56.3034-3.43048 48.3511Z" transform="matrix(-1 0 0 1 640.164 441.5)"/><path d="M410.749 438.881 545.75 493.136 545.253 494.373 410.251 440.119ZM545.756 489.546 551.688 496.241 542.773 496.969Z"/><path d="M0.506431-0.433558 46.0451 52.7593 45.0322 53.6264-0.506431 0.433558ZM47.7101 49.5786 49.8742 58.2571 41.6329 54.7813Z" transform="matrix(-1 0 0 1 411.374 439.5)"/><path d="M1011.5 276.833 1213.77 276.833 1213.77 637.399 1021.17 637.399 1021.17 634.065 1212.1 634.065 1210.44 635.732 1210.44 278.5 1212.1 280.167 1011.5 280.167ZM1022.83 640.732 1012.83 635.732 1022.83 630.732Z" fill="#064578"/><path d="M0.131504-0.653568 273.026 54.2554 272.763 55.5626-0.131504 0.653568ZM272.376 50.7246 279.43 56.224 270.798 58.5674Z" transform="matrix(-1 0 0 1 640.93 441.5)"/><rect x="263.5" y="482.5" width="420" height="97" stroke="#000000" stroke-width="1.33333" stroke-miterlimit="8" stroke-dasharray="5.33333 4" fill="none"/><text font-family="Calibri,Calibri_MSFontService,sans-serif" font-weight="400" font-size="24" transform="translate(109.582 509)">“Gateway”</text><text font-family="Calibri,Calibri_MSFontService,sans-serif" font-weight="400" font-size="24" transform="translate(131.322 538)">Actors</text><text font-family="Calibri,Calibri_MSFontService,sans-serif" font-weight="400" font-size="24" transform="translate(123.769 567)">Defined</text><path d="M0.00621374-0.999981 29.5807-0.816209 29.5683 1.18375-0.00621374 0.999981ZM28.2661-3.82444 36.241 0.225197 28.2163 4.17541Z" transform="matrix(1 0 0 -1 227 531.225)"/><path d="M1036.06 494.578 990.93 463.598 992.062 461.949 1037.19 492.929ZM990.331 466.825 986 459 994.859 460.23Z" fill="#92D050"/><path d="M0.497555-0.867432 23.1426 12.1217 22.1475 13.8565-0.497555 0.867432ZM23.4787 8.85597 28.4279 16.3061 19.4982 15.7954Z" fill="#92D050" transform="matrix(-1 0 0 1 1037.43 519)"/><path d="M872.166 472.445 872.632 486.492 869.3 486.603 868.834 472.555ZM875.908 484.716 871.242 494.876 865.914 485.048Z" fill="#064578"/></g></svg>