<?xml version="1.0" encoding="UTF-8" standalone="no"?>
<svg
   width="1039"
   height="236.31104"
   overflow="hidden"
   version="1.1"
   id="svg80"
   sodipodi:docname="vol1-diagram-sdpi-req-types-model.svg"
   inkscape:version="1.1.2 (b8e25be833, 2022-02-05)"
   xmlns:inkscape="http://www.inkscape.org/namespaces/inkscape"
   xmlns:sodipodi="http://sodipodi.sourceforge.net/DTD/sodipodi-0.dtd"
   xmlns="http://www.w3.org/2000/svg"
   xmlns:svg="http://www.w3.org/2000/svg">
  <defs
     id="defs84" />
  <sodipodi:namedview
     id="namedview82"
     pagecolor="#ffffff"
     bordercolor="#000000"
     borderopacity="0.25"
     inkscape:pageshadow="2"
     inkscape:pageopacity="0.0"
     inkscape:pagecheckerboard="0"
     showgrid="false"
     fit-margin-top="15"
     fit-margin-left="15"
     fit-margin-right="15"
     fit-margin-bottom="15"
     inkscape:zoom="0.8609375"
     inkscape:cx="536.04356"
     inkscape:cy="152.74047"
     inkscape:window-width="1620"
     inkscape:window-height="1058"
     inkscape:window-x="-6"
     inkscape:window-y="-6"
     inkscape:window-maximized="1"
     inkscape:current-layer="g78" />
  <g
     id="g78"
     transform="translate(-103,-206.68896)">
    <rect
       style="fill:#ffffff"
       id="rect188"
       width="1058.1488"
       height="249.72777"
       x="92.54628"
       y="196.23524" />
    <text
       font-family="Calibri, Calibri_MSFontService, sans-serif"
       font-weight="400"
       font-size="16px"
       transform="translate(421.917,383)"
       id="text4">0..1</text>
    <rect
       x="521"
       y="265"
       width="203"
       height="68"
       stroke="#0070c0"
       stroke-width="2"
       stroke-linejoin="round"
       stroke-miterlimit="10"
       fill="none"
       id="rect6" />
    <text
       font-family="Calibri, Calibri_MSFontService, sans-serif"
       font-style="italic"
       font-weight="400"
       font-size="24px"
       transform="translate(560.462,292)"
       id="text8">Requirement</text>
    <text
       font-family="Calibri, Calibri_MSFontService, sans-serif"
       font-style="italic"
       font-weight="400"
       font-size="24px"
       transform="translate(575.149,321)"
       id="text10">Definition</text>
    <text
       font-family="Calibri, Calibri_MSFontService, sans-serif"
       font-weight="400"
       font-size="19px"
       transform="translate(833.072,252)"
       id="text12">satisfied</text>
    <text
       font-family="Calibri, Calibri_MSFontService, sans-serif"
       font-weight="400"
       font-size="19px"
       transform="translate(833.072,275)"
       id="text14">by</text>
    <rect
       x="324"
       y="387"
       width="190"
       height="39"
       stroke="#0070c0"
       stroke-width="2"
       stroke-linejoin="round"
       stroke-miterlimit="10"
       fill="none"
       id="rect16" />
    <text
       font-family="Calibri, Calibri_MSFontService, sans-serif"
       font-weight="400"
       font-size="24px"
       transform="translate(334.804,414)"
       id="text18">Use Case Feature</text>
    <rect
       x="528"
       y="387"
       width="190"
       height="39"
       stroke="#0070c0"
       stroke-width="2"
       stroke-linejoin="round"
       stroke-miterlimit="10"
       fill="none"
       id="rect20" />
    <text
       font-family="Calibri, Calibri_MSFontService, sans-serif"
       font-weight="400"
       font-size="24px"
       transform="translate(540.594,414)"
       id="text22">Ref. Standard ICS</text>
    <rect
       x="732"
       y="388"
       width="190"
       height="39"
       stroke="#0070c0"
       stroke-width="2"
       stroke-linejoin="round"
       stroke-miterlimit="10"
       fill="none"
       id="rect24" />
    <text
       font-family="Calibri, Calibri_MSFontService, sans-serif"
       font-weight="400"
       font-size="24px"
       transform="translate(810.145,415)"
       id="text26">SES</text>
    <rect
       x="936"
       y="387"
       width="190"
       height="39"
       stroke="#0070c0"
       stroke-width="2"
       stroke-linejoin="round"
       stroke-miterlimit="10"
       fill="none"
       id="rect28" />
    <text
       font-family="Calibri, Calibri_MSFontService, sans-serif"
       font-weight="400"
       font-size="24px"
       transform="translate(968.563,414)"
       id="text30">Tech Feature</text>
    <path
       d="m 624.108,340.167 v 21.039 H 419.5 l 0.667,-0.666 v 27.039 h -1.334 v -27.706 h 204.609 l -0.667,0.667 v -20.373 z m -4.666,1.333 4,-8 4,8 z"
       id="path32" />
    <path
       d="M 6.66667,-0.666667 H 27.7766 V 0.20147 L 27.1099,-0.465197 H 54.2198 V 0.868136 H 26.4433 V 0 l 0.6666,0.666667 H 6.66667 Z M 8,4 0,0 8,-4 Z"
       transform="matrix(0,1,1,0,623.5,333.5)"
       id="path34" />
    <path
       d="M 6.66667,-0.666667 H 28.0577 V 204.143 l -0.6667,-0.667 h 27.3908 v 1.334 H 26.7244 V 0 L 27.391,0.666667 H 6.66667 Z M 8,4 0,0 8,-4 Z"
       transform="matrix(0,1,1,0,623.5,333.5)"
       id="path36" />
    <path
       d="M 6.66667,-0.666667 H 27.6429 V 408.084 l -0.6667,-0.666 H 53.952 v 1.333 H 26.3096 V 0 l 0.6666,0.666667 H 6.66667 Z M 8,4 0,0 8,-4 Z"
       transform="matrix(0,1,1,0,623.5,333.5)"
       id="path38" />
    <text
       font-family="Calibri, Calibri_MSFontService, sans-serif"
       font-weight="400"
       font-size="16px"
       transform="translate(636.51,355)"
       id="text40">“is a”</text>
    <text
       font-family="Calibri, Calibri_MSFontService, sans-serif"
       font-weight="400"
       font-size="16px"
       transform="translate(628.972,383)"
       id="text42">0..1</text>
    <text
       font-family="Calibri, Calibri_MSFontService, sans-serif"
       font-weight="400"
       font-size="16px"
       transform="translate(832.913,383)"
       id="text44">0..1</text>
    <text
       font-family="Calibri, Calibri_MSFontService, sans-serif"
       font-weight="400"
       font-size="16px"
       transform="translate(1039.37,382)"
       id="text46">0..1</text>
    <rect
       x="864"
       y="264"
       width="203"
       height="68"
       stroke="#0070c0"
       stroke-width="2"
       stroke-linejoin="round"
       stroke-miterlimit="10"
       fill="none"
       id="rect48" />
    <text
       font-family="Calibri, Calibri_MSFontService, sans-serif"
       font-weight="400"
       font-size="24px"
       transform="translate(901.78,291)"
       id="text50">Requirement</text>
    <text
       font-family="Calibri, Calibri_MSFontService, sans-serif"
       font-weight="400"
       font-size="24px"
       transform="translate(935.654,320)"
       id="text52">Usage</text>
    <path
       d="M 1.32411,-0.656226 138.079,0.42423 138.068,1.75752 1.31358,0.677066 Z M 8.94239,5.31333 -0.00308973,-2.44165e-5 9.02522,-5.17138 c 0.31949,-0.183 0.72684,-0.07235 0.90985,0.24714 0.18303,0.31949 0.07233,0.72684 -0.24714,0.90984 L 1.65131,0.588917 1.66041,-0.562752 9.62329,4.16697 C 9.93985,4.355 10.044,4.76405 9.85602,5.08061 9.66799,5.39716 9.25895,5.50136 8.94239,5.31333 Z m 121.50961,-9.52535 8.946,5.31336 -9.029,5.17135 c -0.319,0.183 -0.726,0.07236 -0.909,-0.24713 -0.183,-0.31949 -0.073,-0.72684 0.247,-0.90985 l 8.036,-4.603315 -0.009,1.151665 -7.963,-4.72972 c -0.316,-0.18803 -0.42,-0.59708 -0.232,-0.91363 0.188,-0.31656 0.597,-0.42076 0.913,-0.23273 z"
       transform="matrix(-1,0,0,1,863.895,298.5)"
       id="path54" />
    <text
       font-family="Calibri, Calibri_MSFontService, sans-serif"
       font-weight="400"
       font-size="16px"
       transform="translate(729.412,290)"
       id="text56">1..*</text>
    <text
       font-family="Calibri, Calibri_MSFontService, sans-serif"
       font-weight="400"
       font-size="16px"
       transform="translate(836.285,319)"
       id="text58">1..*</text>
    <text
       font-family="Calibri, Calibri_MSFontService, sans-serif"
       font-weight="400"
       font-size="19px"
       transform="translate(693.987,252)"
       id="text60">satisfies</text>
    <path
       d="M 0,0.833333 H -23.9998 L -23.1665,0 V 57.9283 L -23.9998,57.095 H 101.595 l -0.833,0.8333 V 40.5949 h 1.666 V 58.7616 H -24.8332 V -0.833333 H 0 Z m 97.5951,41.094867 3.9999,-8 4,8 z"
       fill="#4472c4"
       transform="matrix(1,0,0,-1,521,298.928)"
       id="path62" />
    <text
       font-family="Calibri, Calibri_MSFontService, sans-serif"
       font-weight="400"
       font-size="16px"
       transform="translate(597.125,258)"
       id="text64">0..*</text>
    <text
       font-family="Calibri, Calibri_MSFontService, sans-serif"
       font-weight="400"
       font-size="19px"
       transform="translate(448.179,234)"
       id="text66">requirement</text>
    <text
       font-family="Calibri, Calibri_MSFontService, sans-serif"
       font-weight="400"
       font-size="19px"
       transform="translate(448.179,257)"
       id="text68">group</text>
    <rect
       x="119"
       y="387"
       width="190"
       height="39"
       stroke="#0070c0"
       stroke-width="2"
       stroke-linejoin="round"
       stroke-miterlimit="10"
       fill="none"
       id="rect70" />
    <text
       font-family="Calibri, Calibri_MSFontService, sans-serif"
       font-weight="400"
       font-size="24px"
       transform="translate(163.531,414)"
       id="text72">IHE Profile</text>
    <path
       d="m 623.631,340.167 v 20.976 H 214.5 l 0.667,-0.667 v 26.976 h -1.334 v -27.643 h 409.132 l -0.667,0.667 v -20.309 z m -4.666,1.333 4,-8 4,8 z"
       id="path74" />
    <text
       font-family="Calibri, Calibri_MSFontService, sans-serif"
       font-weight="400"
       font-size="16px"
       transform="translate(219.476,382)"
       id="text76">0..1</text>
  </g>
</svg>
