<?xml version="1.0" encoding="utf-8"?>
<!-- Generator: Adobe Illustrator 16.0.0, SVG Export Plug-In . SVG Version: 6.00 Build 0)  -->
<!DOCTYPE svg PUBLIC "-//W3C//DTD SVG 1.1//EN" "http://www.w3.org/Graphics/SVG/1.1/DTD/svg11.dtd">
<svg version="1.1" id="Layer_1" xmlns="http://www.w3.org/2000/svg" xmlns:xlink="http://www.w3.org/1999/xlink" x="0px" y="0px"
	 width="792px" height="612px" viewBox="0 0 792 612" enable-background="new 0 0 792 612" xml:space="preserve">
<polygon fill="#EC2227" points="308.99,173.949 308.99,355.646 270.978,355.646 270.978,273.921 189.506,273.921 189.506,355.646 
	151.62,355.646 151.62,173.949 189.506,173.949 189.506,238.823 270.978,238.823 270.978,173.949 "/>
<polygon fill="#EC2227" points="381.213,173.823 381.213,320.549 471.048,320.549 471.048,355.646 343.201,355.646 343.201,173.823 
	"/>
<polygon fill="#EC2227" points="563.229,209.203 473.307,209.203 473.307,173.747 606.391,173.747 606.391,207.661 533.682,355.646 
	488.721,355.646 "/>
<path fill="#6E6F71" d="M573.982,345.088h1.992c0.392,0,0.777-0.012,1.156-0.039c0.373-0.027,0.716-0.104,1.008-0.229
	c0.294-0.126,0.526-0.313,0.698-0.566c0.171-0.25,0.257-0.607,0.257-1.075c0-0.392-0.08-0.712-0.228-0.954
	c-0.153-0.242-0.354-0.425-0.606-0.55c-0.256-0.125-0.535-0.205-0.849-0.241c-0.312-0.037-0.623-0.057-0.928-0.057h-2.501V345.088z
	 M572.376,339.927h4.242c1.398,0,2.432,0.266,3.092,0.794c0.667,0.527,0.997,1.375,0.997,2.541c0,1.039-0.299,1.799-0.886,2.285
	c-0.594,0.482-1.321,0.771-2.177,0.859l3.331,5.106h-1.748l-3.173-4.974h-2.072v4.974h-1.606V339.927z M567.638,345.705
	c0,1.203,0.227,2.316,0.66,3.348c0.439,1.033,1.046,1.928,1.815,2.689c0.771,0.762,1.669,1.363,2.689,1.801
	c1.021,0.438,2.127,0.66,3.307,0.66s2.286-0.222,3.308-0.66c1.021-0.438,1.912-1.043,2.684-1.813
	c0.776-0.775,1.381-1.682,1.815-2.73c0.439-1.047,0.66-2.182,0.66-3.4c0-1.202-0.221-2.32-0.66-3.359
	c-0.435-1.039-1.039-1.94-1.815-2.701c-0.771-0.763-1.663-1.358-2.684-1.789c-1.021-0.431-2.128-0.645-3.308-0.645
	s-2.286,0.221-3.307,0.657c-1.021,0.44-1.919,1.039-2.689,1.803c-0.77,0.761-1.376,1.666-1.815,2.716
	C567.864,343.328,567.638,344.472,567.638,345.705 M566.03,345.705c0-1.433,0.27-2.763,0.808-3.992
	c0.536-1.225,1.258-2.288,2.175-3.184c0.911-0.895,1.981-1.598,3.197-2.113c1.216-0.51,2.52-0.762,3.899-0.762
	c1.363,0,2.66,0.252,3.882,0.762c1.228,0.516,2.299,1.211,3.216,2.102c0.911,0.887,1.637,1.936,2.176,3.145
	c0.538,1.209,0.807,2.521,0.807,3.938c0,1.434-0.269,2.762-0.807,3.99c-0.539,1.229-1.265,2.293-2.176,3.189
	c-0.917,0.895-1.988,1.598-3.216,2.107c-1.222,0.51-2.519,0.768-3.882,0.768c-1.38,0-2.684-0.258-3.899-0.768
	s-2.286-1.209-3.197-2.098c-0.917-0.885-1.639-1.934-2.175-3.144C566.3,348.435,566.03,347.123,566.03,345.705"/>
<g>
	<rect x="152.375" y="386.113" fill="#010101" width="5.226" height="56.056"/>
	<path fill="#010101" d="M171.615,415.883c0-0.685-0.028-1.518-0.081-2.493c-0.054-0.978-0.093-1.967-0.119-2.969
		c-0.027-1.003-0.067-1.941-0.118-2.813c-0.055-0.87-0.081-1.544-0.081-2.019h4.752c0.051,1.373,0.09,2.689,0.118,3.958
		c0.026,1.268,0.091,2.087,0.198,2.455h0.238c0.949-2.007,2.533-3.735,4.75-5.187c2.217-1.45,4.803-2.178,7.76-2.178
		c2.851,0,5.172,0.449,6.969,1.347c1.793,0.897,3.206,2.073,4.237,3.523c1.028,1.452,1.741,3.129,2.136,5.028
		c0.397,1.9,0.595,3.854,0.595,5.858v21.772h-4.752v-21.534c0-1.479-0.131-2.917-0.396-4.314c-0.265-1.398-0.726-2.653-1.385-3.763
		c-0.661-1.108-1.583-1.991-2.771-2.653c-1.189-0.659-2.732-0.989-4.633-0.989c-1.741,0-3.393,0.305-4.948,0.912
		c-1.559,0.606-2.904,1.531-4.039,2.77c-1.135,1.243-2.034,2.798-2.694,4.671c-0.66,1.875-0.988,4.079-0.988,6.612v18.289h-4.75
		V415.883z"/>
	<path fill="#010101" d="M233.534,409.865h-10.452v23.831c0,1.639,0.447,2.904,1.346,3.802c0.897,0.898,2.139,1.347,3.722,1.347
		c0.896,0,1.809-0.118,2.733-0.357c0.923-0.237,1.807-0.54,2.651-0.909l0.396,4.273c-0.896,0.317-1.928,0.607-3.087,0.873
		c-1.161,0.262-2.19,0.396-3.087,0.396c-1.689,0-3.143-0.252-4.354-0.752c-1.217-0.502-2.191-1.176-2.93-2.021
		c-0.742-0.842-1.283-1.832-1.624-2.968c-0.345-1.136-0.517-2.362-0.517-3.684v-23.831h-7.917v-4.275h7.917v-10.532h4.752v10.532
		h10.452V409.865z"/>
	<path fill="#010101" d="M274.313,435.282c-1.85,2.798-4.131,4.803-6.85,6.018c-2.721,1.213-5.716,1.82-8.988,1.82
		c-2.8,0-5.333-0.475-7.601-1.426c-2.271-0.951-4.225-2.281-5.86-3.997c-1.636-1.716-2.89-3.749-3.762-6.098
		c-0.871-2.348-1.305-4.948-1.305-7.801c0-2.742,0.447-5.276,1.346-7.599c0.897-2.322,2.164-4.343,3.801-6.06
		c1.635-1.713,3.563-3.06,5.78-4.038c2.217-0.975,4.672-1.464,7.364-1.464c2.796,0,5.266,0.489,7.403,1.464
		c2.137,0.979,3.933,2.271,5.385,3.882c1.45,1.611,2.545,3.443,3.286,5.505c0.737,2.058,1.108,4.142,1.108,6.253v3.325h-30.724
		c0,1.004,0.198,2.284,0.593,3.84c0.398,1.558,1.122,3.077,2.179,4.553c1.053,1.479,2.467,2.746,4.236,3.8
		c1.769,1.057,4.051,1.585,6.848,1.585c2.429,0,4.778-0.582,7.049-1.741c2.269-1.161,4.011-2.746,5.226-4.752L274.313,435.282z
		 M270.67,420.791c0-1.636-0.331-3.167-0.99-4.591c-0.661-1.426-1.559-2.68-2.692-3.762c-1.137-1.081-2.482-1.94-4.039-2.573
		c-1.559-0.634-3.207-0.951-4.95-0.951c-2.587,0-4.738,0.529-6.453,1.584c-1.717,1.056-3.076,2.271-4.077,3.644
		c-1.003,1.371-1.717,2.705-2.138,3.997c-0.423,1.293-0.634,2.179-0.634,2.652H270.67z"/>
	<path fill="#010101" d="M286.032,415.883c0-0.685-0.028-1.518-0.081-2.493c-0.054-0.978-0.092-1.967-0.119-2.969
		c-0.026-1.003-0.066-1.941-0.118-2.813c-0.054-0.87-0.081-1.544-0.081-2.019h4.752c0.052,1.373,0.09,2.689,0.118,3.958
		c0.026,1.268,0.09,2.087,0.199,2.455c1.213-2.164,2.771-3.931,4.671-5.306c1.899-1.372,4.223-2.059,6.968-2.059
		c0.476,0,0.937,0.041,1.386,0.118c0.447,0.08,0.911,0.174,1.385,0.279l-0.555,4.671c-0.633-0.212-1.241-0.318-1.821-0.318
		c-2.059,0-3.841,0.332-5.345,0.99c-1.503,0.661-2.745,1.57-3.721,2.732c-0.978,1.161-1.703,2.521-2.178,4.078
		c-0.475,1.559-0.713,3.232-0.713,5.028v19.95h-4.75V415.883z"/>
	<path fill="#010101" d="M312.398,415.883c0-0.685-0.028-1.518-0.08-2.493c-0.054-0.978-0.093-1.967-0.119-2.969
		c-0.027-1.003-0.067-1.941-0.118-2.813c-0.055-0.87-0.081-1.544-0.081-2.019h4.752c0.051,1.373,0.09,2.689,0.118,3.958
		c0.026,1.268,0.091,2.087,0.198,2.455h0.239c0.949-2.007,2.533-3.735,4.75-5.187c2.217-1.45,4.803-2.178,7.76-2.178
		c2.851,0,5.172,0.449,6.969,1.347c1.793,0.897,3.206,2.073,4.237,3.523c1.028,1.452,1.741,3.129,2.137,5.028
		c0.396,1.9,0.595,3.854,0.595,5.858v21.772h-4.752v-21.534c0-1.479-0.131-2.917-0.394-4.314c-0.267-1.398-0.727-2.653-1.387-3.763
		c-0.66-1.108-1.583-1.991-2.771-2.653c-1.189-0.659-2.732-0.989-4.633-0.989c-1.742,0-3.393,0.305-4.948,0.912
		c-1.559,0.606-2.905,1.531-4.039,2.77c-1.135,1.243-2.034,2.798-2.693,4.671c-0.66,1.875-0.988,4.079-0.988,6.612v18.289h-4.75
		V415.883z"/>
	<path fill="#010101" d="M384.849,426.81c0,1.794,0.013,3.405,0.04,4.828c0.026,1.427,0.067,2.747,0.119,3.961
		c0.052,1.214,0.119,2.349,0.199,3.403c0.08,1.057,0.197,2.112,0.356,3.167h-4.435c-0.317-1.793-0.476-3.773-0.476-5.938h-0.158
		c-1.374,2.375-3.075,4.116-5.107,5.226c-2.033,1.108-4.607,1.663-7.72,1.663c-1.585,0-3.143-0.199-4.672-0.595
		c-1.531-0.395-2.904-1.028-4.117-1.901c-1.216-0.87-2.206-1.989-2.971-3.364c-0.766-1.371-1.148-3.032-1.148-4.988
		c0-2.797,0.713-5.013,2.137-6.65c1.426-1.636,3.181-2.862,5.267-3.682c2.084-0.817,4.302-1.346,6.65-1.585
		c2.35-0.237,4.422-0.354,6.218-0.354h5.543v-2.219c0-3.166-0.978-5.435-2.931-6.809c-1.954-1.372-4.408-2.06-7.365-2.06
		c-4.222,0-7.945,1.374-11.164,4.119l-2.771-3.249c1.742-1.687,3.905-2.968,6.492-3.839c2.585-0.871,5.067-1.307,7.442-1.307
		c4.435,0,7.972,1.043,10.612,3.129c2.638,2.085,3.958,5.449,3.958,10.094V426.81z M375.348,423.799
		c-2.007,0-3.947,0.134-5.821,0.398c-1.874,0.263-3.563,0.711-5.067,1.346c-1.504,0.634-2.705,1.478-3.602,2.532
		c-0.899,1.057-1.347,2.377-1.347,3.958c0,1.11,0.249,2.101,0.751,2.971c0.502,0.871,1.148,1.585,1.941,2.138
		c0.791,0.556,1.674,0.976,2.651,1.266c0.977,0.292,1.967,0.438,2.97,0.438c2.534,0,4.619-0.369,6.255-1.109
		c1.635-0.739,2.942-1.702,3.919-2.891c0.977-1.187,1.649-2.532,2.021-4.036c0.367-1.506,0.554-3.022,0.554-4.555v-2.455H375.348z"
		/>
	<path fill="#010101" d="M415.413,409.865H404.96v23.831c0,1.639,0.448,2.904,1.347,3.802c0.896,0.898,2.139,1.347,3.721,1.347
		c0.897,0,1.81-0.118,2.733-0.357c0.923-0.237,1.807-0.54,2.652-0.909l0.395,4.273c-0.896,0.317-1.928,0.607-3.087,0.873
		c-1.162,0.262-2.19,0.396-3.088,0.396c-1.689,0-3.142-0.252-4.355-0.752c-1.216-0.502-2.19-1.176-2.93-2.021
		c-0.741-0.842-1.282-1.832-1.622-2.968c-0.346-1.136-0.518-2.362-0.518-3.684v-23.831h-7.917v-4.275h7.917v-10.532h4.752v10.532
		h10.453V409.865z"/>
	<path fill="#010101" d="M423.565,391.099c0-1,0.344-1.847,1.031-2.532c0.684-0.687,1.529-1.03,2.532-1.03
		c1.002,0,1.848,0.344,2.535,1.03c0.685,0.686,1.027,1.532,1.027,2.532c0,1.006-0.343,1.851-1.027,2.535
		c-0.688,0.687-1.533,1.028-2.535,1.028c-1.003,0-1.849-0.342-2.532-1.028C423.909,392.949,423.565,392.104,423.565,391.099
		 M424.754,405.59h4.753v36.579h-4.753V405.59z"/>
	<path fill="#010101" d="M440.906,423.879c0-2.796,0.476-5.369,1.425-7.721c0.949-2.347,2.268-4.379,3.961-6.095
		c1.688-1.715,3.719-3.048,6.095-3.999c2.377-0.951,4.962-1.426,7.76-1.426c2.799,0,5.372,0.475,7.721,1.426
		c2.35,0.951,4.382,2.284,6.099,3.999c1.713,1.716,3.047,3.748,3.997,6.095c0.951,2.352,1.426,4.925,1.426,7.721
		c0,2.799-0.475,5.372-1.426,7.721c-0.95,2.349-2.284,4.382-3.997,6.098c-1.717,1.716-3.749,3.046-6.099,3.997
		c-2.349,0.951-4.922,1.426-7.721,1.426c-2.798,0-5.383-0.475-7.76-1.426c-2.376-0.951-4.407-2.281-6.095-3.997
		c-1.693-1.716-3.012-3.749-3.961-6.098S440.906,426.678,440.906,423.879 M445.655,423.879c0,2.06,0.332,3.999,0.992,5.819
		c0.659,1.821,1.622,3.406,2.89,4.75c1.266,1.347,2.798,2.417,4.592,3.207c1.795,0.794,3.801,1.189,6.018,1.189
		s4.225-0.396,6.018-1.189c1.797-0.79,3.325-1.86,4.595-3.207c1.266-1.344,2.229-2.929,2.888-4.75c0.66-1.82,0.99-3.76,0.99-5.819
		c0-2.059-0.33-3.997-0.99-5.818c-0.658-1.821-1.622-3.406-2.888-4.752c-1.27-1.345-2.798-2.416-4.595-3.205
		c-1.793-0.792-3.801-1.189-6.018-1.189s-4.223,0.397-6.018,1.189c-1.794,0.789-3.326,1.86-4.592,3.205
		c-1.268,1.346-2.23,2.931-2.89,4.752C445.987,419.882,445.655,421.82,445.655,423.879"/>
	<path fill="#010101" d="M490.001,415.883c0-0.685-0.029-1.518-0.08-2.493c-0.055-0.978-0.094-1.967-0.119-2.969
		c-0.027-1.003-0.066-1.941-0.119-2.813c-0.053-0.87-0.08-1.544-0.08-2.019h4.754c0.05,1.373,0.088,2.689,0.116,3.958
		c0.027,1.268,0.092,2.087,0.199,2.455h0.238c0.948-2.007,2.533-3.735,4.75-5.187c2.216-1.45,4.803-2.178,7.759-2.178
		c2.853,0,5.173,0.449,6.969,1.347c1.794,0.897,3.206,2.073,4.237,3.523c1.028,1.452,1.741,3.129,2.137,5.028
		c0.396,1.9,0.595,3.854,0.595,5.858v21.772h-4.752v-21.534c0-1.479-0.131-2.917-0.396-4.314c-0.266-1.398-0.726-2.653-1.386-3.763
		c-0.661-1.108-1.583-1.991-2.771-2.653c-1.188-0.659-2.731-0.989-4.633-0.989c-1.741,0-3.393,0.305-4.948,0.912
		c-1.558,0.606-2.904,1.531-4.039,2.77c-1.134,1.243-2.032,2.798-2.691,4.671c-0.661,1.875-0.99,4.079-0.99,6.612v18.289h-4.749
		V415.883z"/>
	<path fill="#010101" d="M562.45,426.81c0,1.794,0.014,3.405,0.041,4.828c0.024,1.427,0.065,2.747,0.117,3.961
		c0.053,1.214,0.119,2.349,0.199,3.403c0.079,1.057,0.196,2.112,0.356,3.167h-4.435c-0.317-1.793-0.476-3.773-0.476-5.938h-0.156
		c-1.375,2.375-3.077,4.116-5.108,5.226c-2.034,1.108-4.607,1.663-7.721,1.663c-1.584,0-3.143-0.199-4.672-0.595
		c-1.532-0.395-2.903-1.028-4.116-1.901c-1.217-0.87-2.207-1.989-2.972-3.364c-0.765-1.371-1.146-3.032-1.146-4.988
		c0-2.797,0.711-5.013,2.137-6.65c1.426-1.636,3.181-2.862,5.267-3.682c2.083-0.817,4.302-1.346,6.65-1.585
		c2.35-0.237,4.421-0.354,6.217-0.354h5.542v-2.219c0-3.166-0.977-5.435-2.93-6.809c-1.954-1.372-4.408-2.06-7.364-2.06
		c-4.223,0-7.946,1.374-11.165,4.119l-2.77-3.249c1.74-1.687,3.904-2.968,6.493-3.839c2.584-0.871,5.066-1.307,7.441-1.307
		c4.435,0,7.971,1.043,10.611,3.129c2.639,2.085,3.958,5.449,3.958,10.094V426.81z M552.949,423.799
		c-2.007,0-3.948,0.134-5.82,0.398c-1.874,0.263-3.563,0.711-5.067,1.346c-1.504,0.634-2.705,1.478-3.602,2.532
		c-0.899,1.057-1.347,2.377-1.347,3.958c0,1.11,0.247,2.101,0.752,2.971c0.502,0.871,1.147,1.585,1.939,2.138
		c0.792,0.556,1.675,0.976,2.652,1.266c0.977,0.292,1.967,0.438,2.969,0.438c2.534,0,4.62-0.369,6.256-1.109
		c1.636-0.739,2.943-1.702,3.92-2.891c0.978-1.187,1.648-2.532,2.019-4.036c0.369-1.506,0.555-3.022,0.555-4.555v-2.455H552.949z"/>
	<rect x="575.912" y="382.312" fill="#010101" width="4.751" height="59.857"/>
</g>
</svg>
