<?xml version="1.0" encoding="UTF-8" standalone="no"?>
<svg
   xmlns:dc="http://purl.org/dc/elements/1.1/"
   xmlns:cc="http://creativecommons.org/ns#"
   xmlns:rdf="http://www.w3.org/1999/02/22-rdf-syntax-ns#"
   xmlns:svg="http://www.w3.org/2000/svg"
   xmlns="http://www.w3.org/2000/svg"
   xmlns:sodipodi="http://sodipodi.sourceforge.net/DTD/sodipodi-0.dtd"
   xmlns:inkscape="http://www.inkscape.org/namespaces/inkscape"
   width="341px"
   height="118px"
   viewBox="0 0 341 118"
   version="1.1"
   id="svg5655"
   sodipodi:docname="ihe-logo.svg"
   inkscape:version="0.92.3 (2405546, 2018-03-11)">
  <metadata
     id="metadata5659">
    <rdf:RDF>
      <cc:Work
         rdf:about="">
        <dc:format>image/svg+xml</dc:format>
        <dc:type
           rdf:resource="http://purl.org/dc/dcmitype/StillImage" />
        <dc:title>IHE International</dc:title>
      </cc:Work>
    </rdf:RDF>
  </metadata>
  <sodipodi:namedview
     pagecolor="#ffffff"
     bordercolor="#666666"
     borderopacity="1"
     objecttolerance="10"
     gridtolerance="10"
     guidetolerance="10"
     inkscape:pageopacity="0"
     inkscape:pageshadow="2"
     inkscape:window-width="1957"
     inkscape:window-height="1095"
     id="namedview5657"
     showgrid="false"
     inkscape:zoom="0.83284457"
     inkscape:cx="170.5"
     inkscape:cy="59"
     inkscape:window-x="0"
     inkscape:window-y="0"
     inkscape:window-maximized="0"
     inkscape:current-layer="svg5655" />
  <!-- Created by Xeno Media, Inc. -->
  <title
     id="title5583">IHE International</title>
  <desc
     id="desc5585">Integrating the Healthcare Enterprise</desc>
  <defs
     id="defs5592">
    <linearGradient
       id="purple-gradient"
       x1="0%"
       y1="0%"
       x2="0%"
       y2="100%">
      <stop
         offset="0%"
         style="stop-color:rgb(80, 57, 139);stop-opacity:1"
         id="stop5587" />
      <stop
         offset="100%"
         style="stop-color:rgb(62, 44, 114);stop-opacity:1"
         id="stop5589" />
    </linearGradient>
  </defs>
  <g
     id="ihe-international"
     stroke="none"
     stroke-width="1"
     fill="none"
     fill-rule="evenodd">
    <g
       id="ihe-logo"
       fill="url(#purple-gradient)">
      <g
         id="tagline"
         transform="translate(199.000000, 20.000000)">
        <g
           id="enterprise"
           transform="translate(0.000000, 47.000000)">
          <path
             d="M94.196,10.719 L88.374,10.719 L88.374,10.609 C88.374,8.345 89.433,7.075 91.317,7.075 C93.25,7.075 94.196,8.26 94.196,10.609 L94.196,10.719 Z M91.317,5.383 C88.176,5.383 86.449,7.688 86.449,10.805 L86.449,12.345 C86.449,16.555 89.056,17.762 91.582,17.762 C93.05,17.762 94.106,17.628 95.361,17.389 C95.708,17.323 95.798,17.174 95.798,16.886 L95.798,16.14 C95.798,15.919 95.616,15.835 95.439,15.835 C95.405,15.835 95.385,15.835 95.333,15.835 C94.329,15.984 92.857,16.14 91.582,16.14 C89.563,16.14 88.374,14.977 88.374,12.451 L88.374,12.188 L95.732,12.188 C95.987,12.188 96.153,11.993 96.153,11.706 L96.153,10.783 C96.153,7.665 94.524,5.383 91.317,5.383 Z"
             id="tag-ent-e3" />
          <path
             d="M81.878,11.264 L79.707,9.971 C78.692,9.379 78.189,8.964 78.189,8.304 C78.189,7.188 79.004,7.031 80.223,7.031 C81.457,7.031 82.862,7.14 83.635,7.206 C83.654,7.206 83.677,7.206 83.696,7.206 C83.913,7.206 84.075,7.096 84.075,6.833 L84.075,6.11 C84.075,5.865 83.938,5.713 83.654,5.666 C82.626,5.493 81.457,5.383 80.223,5.383 C77.969,5.383 76.256,6.019 76.256,8.304 C76.256,9.685 77.158,10.628 78.494,11.439 L80.712,12.76 C81.961,13.505 82.361,13.923 82.361,14.58 C82.361,15.765 81.611,16.14 80.188,16.14 C79.395,16.14 77.796,16.03 76.74,15.896 C76.72,15.896 76.695,15.896 76.651,15.896 C76.429,15.896 76.256,16.03 76.256,16.228 L76.256,16.996 C76.256,17.235 76.429,17.369 76.72,17.433 C77.796,17.68 79.372,17.762 80.188,17.762 C82.64,17.762 84.29,16.82 84.29,14.58 C84.29,13.286 83.696,12.345 81.878,11.264"
             id="tag-ent-s" />
          <path
             d="M73.357,0.973 L72.237,0.973 C71.986,0.973 71.798,1.169 71.798,1.412 L71.798,3.166 C71.798,3.41 71.986,3.606 72.237,3.606 L73.357,3.606 C73.599,3.606 73.791,3.41 73.791,3.166 L73.791,1.412 C73.791,1.169 73.599,0.973 73.357,0.973 M73.313,5.537 L72.259,5.537 C72.017,5.537 71.819,5.733 71.819,5.975 L71.819,17.174 C71.819,17.413 72.017,17.61 72.259,17.61 L73.313,17.61 C73.552,17.61 73.744,17.413 73.744,17.174 L73.744,5.975 C73.744,5.733 73.552,5.537 73.313,5.537"
             id="tag-ent-i" />
          <path
             d="M68.769,5.383 C66.942,5.383 65.424,5.449 64.176,5.999 C63.938,6.11 63.782,6.26 63.782,6.505 L63.782,17.174 C63.782,17.413 63.959,17.61 64.176,17.61 L65.317,17.61 C65.559,17.61 65.711,17.389 65.711,17.174 L65.711,7.292 C66.553,7.116 67.272,7.075 68.769,7.075 C69.182,7.075 69.224,6.961 69.224,6.723 L69.224,5.713 C69.224,5.408 69.053,5.383 68.769,5.383"
             id="tag-ent-r" />
          <path
             d="M59.277,12.383 C59.277,14.735 58.575,16.14 56.425,16.14 C55.725,16.14 54.585,16.049 53.861,15.919 L53.861,7.229 C54.472,7.116 55.506,7.006 56.425,7.006 C58.598,7.006 59.277,8.501 59.277,10.805 L59.277,12.383 Z M56.425,5.383 C55.091,5.383 53.551,5.603 52.391,5.889 C51.988,5.975 51.928,6.11 51.928,6.395 L51.928,21.496 C51.928,21.738 52.098,21.913 52.322,21.913 L53.443,21.913 C53.684,21.913 53.861,21.712 53.861,21.496 L53.861,17.524 C54.717,17.68 55.748,17.762 56.425,17.762 C59.63,17.762 61.214,15.835 61.214,12.383 L61.214,10.805 C61.214,7.515 59.7,5.383 56.425,5.383 Z"
             id="tag-ent-p" />
          <path
             d="M49.213,5.383 C47.393,5.383 45.877,5.449 44.623,5.999 C44.383,6.11 44.227,6.26 44.227,6.505 L44.227,17.174 C44.227,17.413 44.408,17.61 44.623,17.61 L45.767,17.61 C46.009,17.61 46.16,17.389 46.16,17.174 L46.16,7.292 C46.997,7.116 47.717,7.075 49.213,7.075 C49.632,7.075 49.67,6.961 49.67,6.723 L49.67,5.713 C49.67,5.408 49.499,5.383 49.213,5.383"
             id="tag-ent-r2" />
          <path
             d="M39.804,10.719 L33.987,10.719 L33.987,10.609 C33.987,8.345 35.04,7.075 36.927,7.075 C38.861,7.075 39.804,8.26 39.804,10.609 L39.804,10.719 Z M36.927,5.383 C33.785,5.383 32.061,7.688 32.061,10.805 L32.061,12.345 C32.061,16.555 34.669,17.762 37.191,17.762 C38.657,17.762 39.716,17.628 40.971,17.389 C41.319,17.323 41.407,17.174 41.407,16.886 L41.407,16.14 C41.407,15.919 41.233,15.835 41.053,15.835 C41.009,15.835 40.989,15.835 40.948,15.835 C39.934,15.984 38.465,16.14 37.191,16.14 C35.175,16.14 33.987,14.977 33.987,12.451 L33.987,12.188 L41.339,12.188 C41.605,12.188 41.76,11.993 41.76,11.706 L41.76,10.783 C41.76,7.665 40.135,5.383 36.927,5.383 Z"
             id="tag-ent-e2" />
          <path
             d="M30.172,16.206 L28.396,16.206 C27.188,16.206 26.775,15.984 26.775,14.71 L26.775,7.075 L30.194,7.075 C30.433,7.075 30.611,6.898 30.611,6.679 L30.611,5.933 C30.611,5.691 30.433,5.537 30.194,5.537 L26.775,5.537 L26.775,3.21 C26.775,2.99 26.615,2.795 26.403,2.795 C26.403,2.795 26.379,2.795 26.357,2.795 L25.278,2.968 C25.04,3.014 24.839,3.166 24.839,3.387 L24.839,14.71 C24.839,17.084 26.024,17.762 28.085,17.762 C28.879,17.762 29.781,17.7 30.194,17.628 C30.527,17.587 30.631,17.457 30.631,17.259 L30.631,16.517 C30.631,16.294 30.475,16.206 30.172,16.206"
             id="tag-ent-t" />
          <path
             d="M18.081,5.383 L16.527,5.383 C15.035,5.383 12.684,5.953 12.684,9.333 L12.684,17.174 C12.684,17.413 12.842,17.61 13.078,17.61 L14.222,17.61 C14.462,17.61 14.614,17.413 14.614,17.174 L14.614,9.333 C14.614,7.688 15.035,7.052 16.527,7.052 L18.081,7.052 C19.582,7.052 19.998,7.688 19.998,9.333 L19.998,17.174 C19.998,17.413 20.144,17.61 20.389,17.61 L21.529,17.61 C21.774,17.61 21.926,17.413 21.926,17.174 L21.926,9.333 C21.926,5.953 19.582,5.383 18.081,5.383"
             id="tag-ent-n" />
          <path
             d="M9.906,1.28 C8.984,1.188 6.922,1.148 5.624,1.148 C2.557,1.148 0.951,2.311 0.951,5.229 L0.951,13.682 C0.951,16.599 2.557,17.762 5.624,17.762 C6.922,17.762 9.073,17.741 9.906,17.656 C10.039,17.628 10.127,17.48 10.127,17.345 L10.127,16.228 C10.127,16.074 10.039,15.964 9.881,15.964 L5.648,15.964 C3.324,15.964 2.948,15.348 2.948,13.682 L2.948,9.993 L9.687,9.993 C9.931,9.993 10.127,9.794 10.127,9.556 L10.127,8.716 C10.127,8.477 9.931,8.283 9.687,8.283 L2.948,8.283 L2.948,5.229 C2.948,3.562 3.324,2.944 5.648,2.944 L9.881,2.944 C10.039,2.944 10.127,2.833 10.127,2.685 L10.127,1.584 C10.127,1.455 10.039,1.298 9.906,1.28"
             id="tag-ent-e" />
        </g>
        <g
           id="healthcare"
           transform="translate(39.000000, 24.000000)">
          <path
             d="M100.184,10.45 L94.366,10.45 L94.366,10.337 C94.366,8.074 95.423,6.806 97.31,6.806 C99.237,6.806 100.184,7.989 100.184,10.337 L100.184,10.45 Z M97.31,5.115 C94.174,5.115 92.438,7.422 92.438,10.538 L92.438,12.072 C92.438,16.291 95.048,17.5 97.576,17.5 C99.045,17.5 100.098,17.369 101.347,17.123 C101.699,17.06 101.79,16.906 101.79,16.619 L101.79,15.871 C101.79,15.653 101.611,15.562 101.438,15.562 C101.394,15.562 101.367,15.562 101.325,15.562 C100.318,15.719 98.85,15.871 97.576,15.871 C95.557,15.871 94.366,14.707 94.366,12.182 L94.366,11.918 L101.718,11.918 C101.982,11.918 102.137,11.72 102.137,11.434 L102.137,10.51 C102.137,7.398 100.511,5.115 97.31,5.115 Z"
             id="tag-hc-e2" />
          <path
             d="M90.378,5.115 C88.558,5.115 87.042,5.181 85.787,5.727 C85.546,5.838 85.395,5.994 85.395,6.234 L85.395,16.906 C85.395,17.148 85.568,17.346 85.787,17.346 L86.935,17.346 C87.171,17.346 87.333,17.123 87.333,16.906 L87.333,7.026 C88.167,6.849 88.887,6.806 90.378,6.806 C90.797,6.806 90.84,6.696 90.84,6.453 L90.84,5.442 C90.84,5.139 90.665,5.115 90.378,5.115"
             id="tag-hc-r" />
          <path
             d="M80.512,15.653 C79.896,15.766 78.87,15.871 77.943,15.871 C75.772,15.871 75.091,14.374 75.091,12.072 L75.091,10.538 C75.091,8.209 75.772,6.738 77.943,6.738 C78.87,6.738 79.921,6.849 80.512,6.956 L80.512,15.653 Z M81.983,5.618 C80.823,5.331 79.261,5.115 77.943,5.115 C74.656,5.115 73.158,7.243 73.158,10.538 L73.158,12.072 C73.158,15.368 74.674,17.5 77.943,17.5 C79.285,17.5 80.823,17.277 81.983,16.994 C82.385,16.906 82.443,16.77 82.443,16.489 L82.443,6.123 C82.443,5.817 82.385,5.707 81.983,5.618 Z"
             id="tag-hc-a2" />
          <path
             d="M70.984,5.356 C70.256,5.226 69.249,5.115 68.24,5.115 C65.229,5.115 63.564,7.222 63.564,10.45 L63.564,12.163 C63.564,15.389 65.255,17.5 68.24,17.5 C69.271,17.5 70.256,17.388 70.984,17.255 C71.334,17.192 71.422,17.06 71.422,16.77 L71.422,15.98 C71.422,15.766 71.246,15.653 71.051,15.653 C71.003,15.653 70.984,15.653 70.965,15.653 C69.997,15.766 69.318,15.805 68.24,15.805 C66.464,15.805 65.498,14.619 65.498,12.163 L65.498,10.45 C65.498,7.97 66.485,6.806 68.24,6.806 C69.318,6.806 69.997,6.849 70.965,6.956 C70.984,6.956 71.003,6.956 71.051,6.956 C71.246,6.956 71.422,6.849 71.422,6.626 L71.422,5.838 C71.422,5.532 71.334,5.421 70.984,5.356"
             id="tag-hc-c" />
          <path
             d="M56.239,5.115 C55.385,5.115 54.463,5.244 53.721,5.421 L53.721,1.251 C53.721,1.013 53.519,0.832 53.306,0.832 L52.177,0.832 C51.94,0.832 51.786,1.031 51.786,1.251 L51.786,16.906 C51.786,17.148 51.984,17.346 52.221,17.346 L53.28,17.346 C53.519,17.346 53.721,17.148 53.721,16.906 L53.721,7.087 C54.395,6.891 55.359,6.761 56.239,6.761 C58.214,6.761 59.094,7.704 59.094,9.526 L59.094,16.906 C59.094,17.148 59.287,17.346 59.531,17.346 L60.588,17.346 C60.824,17.346 61.021,17.148 61.021,16.906 L61.021,9.526 C61.021,6.916 59.531,5.115 56.239,5.115"
             id="tag-hc-h2" />
          <path
             d="M49.451,16.994 L49.451,16.245 C49.451,16.027 49.292,15.939 48.991,15.939 L47.213,15.939 C46.004,15.939 45.593,15.719 45.593,14.446 L45.593,6.806 L49.012,6.806 C49.258,6.806 49.43,6.626 49.43,6.41 L49.43,5.662 C49.43,5.421 49.258,5.266 49.012,5.266 L45.593,5.266 L45.593,2.941 C45.593,2.724 45.437,2.522 45.213,2.522 L45.172,2.522 L44.096,2.699 C43.856,2.743 43.662,2.899 43.662,3.12 L43.662,14.446 C43.662,16.819 44.839,17.5 46.904,17.5 C47.696,17.5 48.596,17.434 49.012,17.369 C49.342,17.324 49.451,17.192 49.451,16.994"
             id="tag-hc-t" />
          <path
             d="M38.688,1.251 L38.688,16.906 C38.688,17.148 38.868,17.346 39.087,17.346 L40.227,17.346 C40.471,17.346 40.629,17.123 40.629,16.906 L40.629,1.251 C40.629,1.013 40.444,0.832 40.227,0.832 L39.087,0.832 C38.849,0.832 38.688,1.031 38.688,1.251"
             id="tag-hc-l" />
          <path
             d="M33.702,15.653 C33.083,15.766 32.052,15.871 31.134,15.871 C28.96,15.871 28.278,14.374 28.278,12.072 L28.278,10.538 C28.278,8.209 28.96,6.738 31.134,6.738 C32.052,6.738 33.108,6.849 33.702,6.956 L33.702,15.653 Z M35.174,5.618 C34.007,5.331 32.451,5.115 31.134,5.115 C27.836,5.115 26.348,7.243 26.348,10.538 L26.348,12.072 C26.348,15.368 27.865,17.5 31.134,17.5 C32.476,17.5 34.007,17.277 35.174,16.994 C35.564,16.906 35.633,16.77 35.633,16.489 L35.633,6.123 C35.633,5.817 35.564,5.707 35.174,5.618 Z"
             id="tag-hc-a" />
          <path
             d="M22.194,10.45 L16.377,10.45 L16.377,10.337 C16.377,8.074 17.431,6.806 19.314,6.806 C21.245,6.806 22.194,7.989 22.194,10.337 L22.194,10.45 Z M19.314,5.115 C16.177,5.115 14.451,7.422 14.451,10.538 L14.451,12.072 C14.451,16.291 17.056,17.5 19.581,17.5 C21.053,17.5 22.104,17.369 23.363,17.123 C23.704,17.06 23.792,16.906 23.792,16.619 L23.792,15.871 C23.792,15.653 23.619,15.562 23.449,15.562 C23.398,15.562 23.375,15.562 23.339,15.562 C22.324,15.719 20.86,15.871 19.581,15.871 C17.564,15.871 16.377,14.707 16.377,12.182 L16.377,11.918 L23.729,11.918 C23.992,11.918 24.146,11.72 24.146,11.434 L24.146,10.51 C24.146,7.398 22.521,5.115 19.314,5.115 Z"
             id="tag-hc-e" />
          <path
             d="M11.207,1.031 L10.084,1.031 C9.842,1.031 9.647,1.229 9.647,1.47 L9.647,7.836 L2.141,7.836 L2.141,1.47 C2.141,1.229 1.94,1.031 1.7,1.031 L0.584,1.031 C0.337,1.031 0.142,1.229 0.142,1.47 L0.142,16.906 C0.142,17.148 0.337,17.346 0.584,17.346 L1.7,17.346 C1.94,17.346 2.141,17.148 2.141,16.906 L2.141,9.614 L9.647,9.614 L9.647,16.906 C9.647,17.148 9.842,17.346 10.084,17.346 L11.207,17.346 C11.443,17.346 11.644,17.148 11.644,16.906 L11.644,1.47 C11.644,1.229 11.443,1.031 11.207,1.031"
             id="tag-hc-h" />
        </g>
        <g
           id="the"
           transform="translate(0.000000, 24.000000)">
          <path
             d="M22.562,10.337 C22.562,8.074 23.614,6.806 25.499,6.806 C27.432,6.806 28.373,7.989 28.373,10.337 L28.373,10.45 L22.562,10.45 L22.562,10.337 Z M29.916,11.918 C30.178,11.918 30.328,11.72 30.328,11.434 L30.328,10.51 C30.328,7.398 28.709,5.115 25.499,5.115 C22.363,5.115 20.631,7.422 20.631,10.538 L20.631,12.072 C20.631,16.291 23.241,17.5 25.766,17.5 C27.237,17.5 28.288,17.369 29.536,17.123 C29.894,17.06 29.981,16.906 29.981,16.619 L29.981,15.871 C29.981,15.653 29.806,15.562 29.621,15.562 C29.583,15.562 29.561,15.562 29.522,15.562 C28.511,15.719 27.036,15.871 25.766,15.871 C23.747,15.871 22.562,14.707 22.562,12.182 L22.562,11.918 L29.916,11.918 Z"
             id="tag-the-e" />
          <path
             d="M16.166,9.526 L16.166,16.906 C16.166,17.148 16.362,17.346 16.604,17.346 L17.66,17.346 C17.902,17.346 18.097,17.148 18.097,16.906 L18.097,9.526 C18.097,6.916 16.604,5.115 13.314,5.115 C12.457,5.115 11.535,5.244 10.787,5.421 L10.787,1.251 C10.787,1.013 10.591,0.832 10.374,0.832 L9.252,0.832 C9.01,0.832 8.853,1.031 8.853,1.251 L8.853,16.906 C8.853,17.148 9.059,17.346 9.302,17.346 L10.35,17.346 C10.591,17.346 10.787,17.148 10.787,16.906 L10.787,7.087 C11.475,6.891 12.439,6.761 13.314,6.761 C15.292,6.761 16.166,7.704 16.166,9.526"
             id="tag-the-h" />
          <path
             d="M3.977,17.5 C4.771,17.5 5.668,17.434 6.086,17.369 C6.416,17.324 6.531,17.192 6.531,16.994 L6.531,16.245 C6.531,16.027 6.372,15.939 6.063,15.939 L4.287,15.939 C3.08,15.939 2.661,15.719 2.661,14.446 L2.661,6.806 L6.086,6.806 C6.326,6.806 6.504,6.626 6.504,6.41 L6.504,5.662 C6.504,5.421 6.326,5.266 6.086,5.266 L2.661,5.266 L2.661,2.941 C2.661,2.724 2.513,2.522 2.29,2.522 C2.29,2.522 2.266,2.522 2.246,2.522 L1.174,2.699 C0.927,2.743 0.729,2.899 0.729,3.12 L0.729,14.446 C0.729,16.819 1.913,17.5 3.977,17.5"
             id="tag-the-t" />
        </g>
        <g
           id="integrating"
           transform="translate(1.000000, 0.000000)">
          <path
             d="M100.34,15.309 C99.666,15.464 98.508,15.547 97.89,15.547 C95.934,15.547 94.925,14.586 94.925,11.775 L94.925,10.172 C94.925,7.472 95.714,6.421 97.89,6.421 C98.808,6.421 99.757,6.552 100.34,6.662 L100.34,15.309 Z M102.284,5.807 C102.284,5.498 102.21,5.386 101.819,5.3 C100.785,5.057 99.188,4.796 97.89,4.796 C94.598,4.796 92.996,6.531 92.996,10.172 L92.996,11.775 C92.996,15.88 95.153,17.174 97.89,17.174 C98.541,17.174 99.816,17.001 100.34,16.868 L100.34,17.089 C100.34,19.26 99.867,19.765 97.823,19.765 C96.66,19.765 94.883,19.589 94.116,19.501 C94.089,19.501 94.068,19.501 94.053,19.501 C93.832,19.501 93.651,19.632 93.651,19.851 L93.651,20.49 C93.651,20.775 93.783,20.86 94.089,20.951 C94.729,21.126 96.157,21.344 97.823,21.344 C100.805,21.344 102.284,20.311 102.284,17.001 L102.284,5.807 Z"
             id="tag-in-g2" />
          <path
             d="M81.576,17.018 L82.721,17.018 C82.963,17.018 83.116,16.823 83.116,16.582 L83.116,8.746 C83.116,7.098 83.537,6.463 85.025,6.463 L86.585,6.463 C88.073,6.463 88.488,7.098 88.488,8.746 L88.488,16.582 C88.488,16.823 88.646,17.018 88.888,17.018 L90.026,17.018 C90.271,17.018 90.422,16.823 90.422,16.582 L90.422,8.746 C90.422,5.365 88.073,4.796 86.585,4.796 L85.025,4.796 C83.537,4.796 81.181,5.365 81.181,8.746 L81.181,16.582 C81.181,16.823 81.337,17.018 81.576,17.018"
             id="tag-in-n2" />
          <path
             d="M78.157,16.582 L78.157,5.386 C78.157,5.147 77.953,4.951 77.712,4.951 L76.664,4.951 C76.422,4.951 76.219,5.147 76.219,5.386 L76.219,16.582 C76.219,16.823 76.422,17.018 76.664,17.018 L77.712,17.018 C77.953,17.018 78.157,16.823 78.157,16.582 M76.64,3.018 L77.759,3.018 C78.004,3.018 78.199,2.82 78.199,2.579 L78.199,0.824 C78.199,0.58 78.004,0.383 77.759,0.383 L76.64,0.383 C76.403,0.383 76.205,0.58 76.205,0.824 L76.205,2.579 C76.205,2.82 76.403,3.018 76.64,3.018"
             id="tag-in-i2" />
          <path
             d="M73.526,15.615 L71.746,15.615 C70.535,15.615 70.12,15.398 70.12,14.125 L70.12,6.486 L73.545,6.486 C73.787,6.486 73.963,6.311 73.963,6.09 L73.963,5.346 C73.963,5.102 73.787,4.951 73.545,4.951 L70.12,4.951 L70.12,2.622 C70.12,2.404 69.964,2.203 69.743,2.203 C69.743,2.203 69.725,2.203 69.703,2.203 L68.633,2.384 C68.391,2.424 68.193,2.579 68.193,2.798 L68.193,14.125 C68.193,16.492 69.372,17.174 71.436,17.174 C72.228,17.174 73.132,17.109 73.545,17.044 C73.878,17.001 73.987,16.868 73.987,16.667 L73.987,15.923 C73.987,15.705 73.831,15.615 73.526,15.615"
             id="tag-in-t2" />
          <path
             d="M57.895,10.218 C57.895,7.89 58.576,6.421 60.745,6.421 C61.668,6.421 62.728,6.531 63.315,6.637 L63.315,15.331 C62.706,15.441 61.668,15.547 60.745,15.547 C58.576,15.547 57.895,14.059 57.895,11.752 L57.895,10.218 Z M60.745,17.174 C62.087,17.174 63.622,16.958 64.787,16.667 C65.184,16.582 65.244,16.452 65.244,16.166 L65.244,5.807 C65.244,5.498 65.184,5.386 64.787,5.3 C63.622,5.012 62.066,4.796 60.745,4.796 C57.455,4.796 55.967,6.923 55.967,10.218 L55.967,11.752 C55.967,15.045 57.477,17.174 60.745,17.174 Z"
             id="tag-in-a" />
          <path
             d="M54.33,6.135 L54.33,5.124 C54.33,4.816 54.157,4.796 53.874,4.796 C52.05,4.796 50.534,4.858 49.285,5.408 C49.041,5.518 48.891,5.674 48.891,5.915 L48.891,16.582 C48.891,16.823 49.066,17.018 49.285,17.018 L50.43,17.018 C50.664,17.018 50.829,16.803 50.829,16.582 L50.829,6.705 C51.659,6.531 52.377,6.486 53.874,6.486 C54.292,6.486 54.33,6.376 54.33,6.135"
             id="tag-in-r" />
          <path
             d="M38.589,10.172 C38.589,7.472 39.375,6.421 41.549,6.421 C42.467,6.421 43.417,6.552 44.002,6.662 L44.002,15.309 C43.328,15.464 42.166,15.547 41.549,15.547 C39.596,15.547 38.589,14.586 38.589,11.775 L38.589,10.172 Z M41.549,17.174 C42.204,17.174 43.479,17.001 44.002,16.868 L44.002,17.089 C44.002,19.26 43.523,19.765 41.488,19.765 C40.319,19.765 38.545,19.589 37.775,19.501 C37.751,19.501 37.731,19.501 37.707,19.501 C37.489,19.501 37.311,19.632 37.311,19.851 L37.311,20.49 C37.311,20.775 37.444,20.86 37.751,20.951 C38.387,21.126 39.813,21.344 41.488,21.344 C44.47,21.344 45.936,20.311 45.936,17.001 L45.936,5.807 C45.936,5.498 45.873,5.386 45.477,5.3 C44.445,5.057 42.844,4.796 41.549,4.796 C38.257,4.796 36.658,6.531 36.658,10.172 L36.658,11.775 C36.658,15.88 38.804,17.174 41.549,17.174 Z"
             id="tag-in-g" />
          <path
             d="M26.68,10.017 C26.68,7.755 27.741,6.486 29.625,6.486 C31.56,6.486 32.502,7.67 32.502,10.017 L32.502,10.128 L26.68,10.128 L26.68,10.017 Z M34.101,16.296 L34.101,15.547 C34.101,15.331 33.924,15.243 33.751,15.243 C33.71,15.243 33.68,15.243 33.646,15.243 C32.629,15.398 31.161,15.547 29.888,15.547 C27.865,15.547 26.68,14.388 26.68,11.863 L26.68,11.602 L34.034,11.602 C34.301,11.602 34.455,11.401 34.455,11.115 L34.455,10.195 C34.455,7.078 32.825,4.796 29.625,4.796 C26.487,4.796 24.755,7.098 24.755,10.218 L24.755,11.752 C24.755,15.968 27.359,17.174 29.888,17.174 C31.355,17.174 32.414,17.044 33.663,16.803 C34.018,16.735 34.101,16.582 34.101,16.296 Z"
             id="tag-in-e" />
          <path
             d="M20.788,17.174 C21.572,17.174 22.475,17.109 22.89,17.044 C23.22,17.001 23.332,16.868 23.332,16.667 L23.332,15.923 C23.332,15.705 23.176,15.615 22.867,15.615 L21.099,15.615 C19.886,15.615 19.469,15.398 19.469,14.125 L19.469,6.486 L22.89,6.486 C23.132,6.486 23.313,6.311 23.313,6.09 L23.313,5.346 C23.313,5.102 23.132,4.951 22.89,4.951 L19.469,4.951 L19.469,2.622 C19.469,2.404 19.312,2.203 19.094,2.203 C19.094,2.203 19.072,2.203 19.053,2.203 L17.978,2.384 C17.734,2.424 17.538,2.579 17.538,2.798 L17.538,14.125 C17.538,16.492 18.721,17.174 20.788,17.174"
             id="tag-in-t" />
          <path
             d="M5.779,17.018 L6.92,17.018 C7.165,17.018 7.316,16.823 7.316,16.582 L7.316,8.746 C7.316,7.098 7.734,6.463 9.224,6.463 L10.777,6.463 C12.275,6.463 12.69,7.098 12.69,8.746 L12.69,16.582 C12.69,16.823 12.848,17.018 13.095,17.018 L14.229,17.018 C14.471,17.018 14.627,16.823 14.627,16.582 L14.627,8.746 C14.627,5.365 12.275,4.796 10.777,4.796 L9.224,4.796 C7.734,4.796 5.38,5.365 5.38,8.746 L5.38,16.582 C5.38,16.823 5.537,17.018 5.779,17.018"
             id="tag-in-n" />
          <path
             d="M0.57,17.018 L1.77,17.018 C2.011,17.018 2.168,16.803 2.168,16.582 L2.168,1.13 C2.168,0.887 1.992,0.711 1.77,0.711 L0.57,0.711 C0.322,0.711 0.174,0.909 0.174,1.13 L0.174,16.582 C0.174,16.823 0.348,17.018 0.57,17.018"
             id="tag-in-i" />
        </g>
      </g>
      <path
         d="M179.523,0.953 C179.122,0.953 178.785,1.279 178.785,1.685 L178.785,117.249 C178.785,117.65 179.122,117.977 179.523,117.977 C179.922,117.977 180.255,117.65 180.255,117.249 L180.255,1.685 C180.255,1.279 179.922,0.953 179.523,0.953"
         id="separator" />
      <g
         id="logo"
         transform="translate(0.000000, 6.000000)">
        <g
           id="international"
           transform="translate(0.000000, 96.000000)">
          <path
             d="M157.584,13.017 L154.093,13.017 C153.14,13.017 152.794,12.693 152.794,11.637 L152.794,1.145 C152.794,0.922 152.611,0.74 152.389,0.74 L149.729,0.74 C149.507,0.74 149.324,0.922 149.324,1.145 L149.324,11.637 C149.324,15.33 151.658,16 154.275,16 C155.352,16 156.914,15.878 157.584,15.737 C157.868,15.676 157.989,15.575 157.989,15.31 L157.989,13.423 C157.989,13.2 157.807,13.017 157.584,13.017"
             id="int-l" />
          <path
             d="M142.968,7.619 L138.564,7.619 L138.564,5.062 C138.564,3.946 138.909,3.601 140.025,3.601 L141.507,3.601 C142.644,3.601 142.968,3.946 142.968,5.062 L142.968,7.619 Z M141.507,0.597 L140.025,0.597 C137.306,0.597 135.094,1.409 135.094,5.062 L135.094,15.411 C135.094,15.635 135.276,15.818 135.5,15.818 L138.179,15.818 C138.401,15.818 138.564,15.635 138.564,15.411 L138.564,10.481 L142.968,10.481 L142.968,15.411 C142.968,15.635 143.11,15.818 143.333,15.818 L146.012,15.818 C146.235,15.818 146.418,15.635 146.418,15.411 L146.418,5.062 C146.418,1.409 144.227,0.597 141.507,0.597 Z"
             id="int-a2" />
          <path
             d="M125.917,0.557 C124.882,0.557 122.568,0.74 121.493,0.902 C120.701,1.023 120.458,1.246 120.458,2.16 L120.458,15.411 C120.458,15.635 120.62,15.818 120.844,15.818 L123.542,15.818 C123.766,15.818 123.928,15.635 123.928,15.411 L123.928,3.661 C124.558,3.58 125.471,3.539 126.303,3.539 C127.967,3.539 128.718,4.087 128.718,6.361 L128.718,15.411 C128.718,15.635 128.859,15.818 129.083,15.818 L131.802,15.818 C132.025,15.818 132.188,15.635 132.188,15.411 L132.188,6.361 C132.188,1.653 129.854,0.557 125.917,0.557"
             id="int-n3" />
          <path
             d="M114.366,9.486 C114.366,11.921 113.554,12.956 111.85,12.956 C110.145,12.956 109.354,11.921 109.354,9.486 L109.354,7.071 C109.354,4.636 110.145,3.601 111.85,3.601 C113.554,3.601 114.366,4.636 114.366,7.071 L114.366,9.486 Z M111.85,0.557 C108.501,0.557 105.842,2.363 105.842,7.071 L105.842,9.486 C105.842,14.194 108.501,16 111.85,16 C115.198,16 117.856,14.194 117.856,9.486 L117.856,7.071 C117.856,2.363 115.198,0.557 111.85,0.557 Z"
             id="int-o" />
          <path
             d="M102.856,0.74 L100.138,0.74 C99.914,0.74 99.772,0.902 99.772,1.124 L99.772,15.411 C99.772,15.635 99.914,15.818 100.138,15.818 L102.856,15.818 C103.08,15.818 103.242,15.635 103.242,15.411 L103.242,1.124 C103.242,0.902 103.08,0.74 102.856,0.74"
             id="int-i2" />
          <path
             d="M97.313,0.74 L87.247,0.74 C87.024,0.74 86.842,0.902 86.842,1.124 L86.842,3.215 C86.842,3.438 87.024,3.601 87.247,3.601 L90.556,3.601 L90.556,15.411 C90.556,15.635 90.738,15.818 90.961,15.818 L93.619,15.818 C93.843,15.818 94.025,15.635 94.025,15.411 L94.025,3.601 L97.313,3.601 C97.536,3.601 97.739,3.438 97.739,3.215 L97.739,1.124 C97.739,0.902 97.536,0.74 97.313,0.74"
             id="int-t2" />
          <path
             d="M81.398,7.619 L76.995,7.619 L76.995,5.062 C76.995,3.946 77.34,3.601 78.456,3.601 L79.938,3.601 C81.074,3.601 81.398,3.946 81.398,5.062 L81.398,7.619 Z M79.938,0.597 L78.456,0.597 C75.736,0.597 73.524,1.409 73.524,5.062 L73.524,15.411 C73.524,15.635 73.707,15.818 73.931,15.818 L76.609,15.818 C76.832,15.818 76.995,15.635 76.995,15.411 L76.995,10.481 L81.398,10.481 L81.398,15.411 C81.398,15.635 81.541,15.818 81.764,15.818 L84.442,15.818 C84.666,15.818 84.849,15.635 84.849,15.411 L84.849,5.062 C84.849,1.409 82.657,0.597 79.938,0.597 Z"
             id="int-a" />
          <path
             d="M64.348,0.557 C63.313,0.557 60.999,0.74 59.924,0.902 C59.133,1.023 58.889,1.246 58.889,2.16 L58.889,15.411 C58.889,15.635 59.052,15.818 59.274,15.818 L61.974,15.818 C62.197,15.818 62.359,15.635 62.359,15.411 L62.359,3.661 C62.988,3.58 63.901,3.539 64.733,3.539 C66.397,3.539 67.148,4.087 67.148,6.361 L67.148,15.411 C67.148,15.635 67.291,15.818 67.514,15.818 L70.233,15.818 C70.456,15.818 70.619,15.635 70.619,15.411 L70.619,6.361 C70.619,1.653 68.285,0.557 64.348,0.557"
             id="int-n2" />
          <path
             d="M52.676,5.569 C52.676,6.95 52.006,7.497 49.875,7.497 C49.651,7.497 48.657,7.477 48.434,7.456 L48.434,3.56 C48.678,3.539 49.732,3.499 50.017,3.499 C51.722,3.499 52.676,4.068 52.676,5.305 L52.676,5.569 Z M53.508,9.628 C54.989,9.039 56.125,7.72 56.125,5.569 L56.125,5.305 C56.125,1.713 53.467,0.557 50.017,0.557 C48.556,0.557 46.831,0.678 45.897,0.821 C45.268,0.922 44.983,1.105 44.983,1.794 L44.983,15.411 C44.983,15.635 45.166,15.818 45.39,15.818 L48.028,15.818 C48.251,15.818 48.434,15.635 48.434,15.411 L48.434,10.257 C48.819,10.257 49.448,10.297 49.875,10.297 L50.098,10.278 L52.817,15.411 C52.919,15.615 53,15.818 53.224,15.818 L56.328,15.818 C56.552,15.818 56.633,15.716 56.633,15.575 C56.633,15.513 56.612,15.432 56.572,15.351 L53.508,9.628 Z"
             id="int-r" />
          <path
             d="M41.916,0.821 C41.206,0.719 40.191,0.557 37.999,0.557 C35.381,0.557 33.048,1.205 33.048,4.9 L33.048,11.637 C33.048,15.33 35.361,16 37.979,16 C40.171,16 41.206,15.838 41.916,15.737 C42.2,15.696 42.322,15.575 42.322,15.31 L42.322,13.423 C42.322,13.2 42.14,13.017 41.916,13.017 L37.796,13.017 C36.843,13.017 36.497,12.693 36.497,11.637 L36.497,9.486 L41.754,9.486 C41.977,9.486 42.159,9.303 42.159,9.08 L42.159,7.152 C42.159,6.929 41.977,6.746 41.754,6.746 L36.497,6.746 L36.497,4.9 C36.497,3.844 36.843,3.52 37.796,3.52 L41.916,3.52 C42.14,3.52 42.322,3.337 42.322,3.114 L42.322,1.226 C42.322,0.962 42.2,0.861 41.916,0.821"
             id="int-e" />
          <path
             d="M30.649,0.74 L20.584,0.74 C20.36,0.74 20.178,0.902 20.178,1.124 L20.178,3.215 C20.178,3.438 20.36,3.601 20.584,3.601 L23.892,3.601 L23.892,15.411 C23.892,15.635 24.074,15.818 24.298,15.818 L26.956,15.818 C27.18,15.818 27.362,15.635 27.362,15.411 L27.362,3.601 L30.649,3.601 C30.873,3.601 31.076,3.438 31.076,3.215 L31.076,1.124 C31.076,0.902 30.873,0.74 30.649,0.74"
             id="int-t" />
          <path
             d="M11.874,0.557 C10.839,0.557 8.525,0.74 7.449,0.902 C6.658,1.023 6.414,1.246 6.414,2.16 L6.414,15.411 C6.414,15.635 6.577,15.818 6.8,15.818 L9.499,15.818 C9.723,15.818 9.885,15.635 9.885,15.411 L9.885,3.661 C10.514,3.58 11.427,3.539 12.259,3.539 C13.923,3.539 14.674,4.087 14.674,6.361 L14.674,15.411 C14.674,15.635 14.816,15.818 15.039,15.818 L17.759,15.818 C17.982,15.818 18.144,15.635 18.144,15.411 L18.144,6.361 C18.144,1.653 15.811,0.557 11.874,0.557"
             id="int-n" />
          <path
             d="M3.085,0.74 L0.365,0.74 C0.142,0.74 0,0.902 0,1.124 L0,15.411 C0,15.635 0.142,15.818 0.365,15.818 L3.085,15.818 C3.308,15.818 3.471,15.635 3.471,15.411 L3.471,1.124 C3.471,0.902 3.308,0.74 3.085,0.74"
             id="int-i" />
        </g>
        <g
           id="ihe">
          <path
             d="M156.121,2.325 C151.939,1.804 145.974,0.972 133.089,0.972 C117.697,0.972 103.963,4.302 103.963,23.212 L103.963,57.716 C103.963,76.622 117.569,80.049 132.969,80.049 C145.858,80.049 151.939,79.219 156.121,78.702 C157.8,78.493 158.507,77.864 158.507,76.519 L158.507,66.853 C158.507,65.704 157.431,64.782 156.121,64.782 L131.886,64.782 C126.289,64.782 124.252,63.113 124.252,57.716 L124.252,46.696 L155.172,46.696 C156.481,46.696 157.552,45.754 157.552,44.611 L157.552,34.74 C157.552,33.596 156.481,32.674 155.172,32.674 L124.252,32.674 L124.252,23.212 C124.252,17.815 126.289,16.143 131.886,16.143 L156.121,16.143 C157.431,16.143 158.507,15.215 158.507,14.072 L158.507,4.407 C158.507,3.053 157.8,2.526 156.121,2.325"
             id="ihe-e" />
          <path
             d="M29.705,79.113 L45.342,79.113 C46.649,79.113 47.726,78.183 47.726,77.044 L47.726,47.003 L77.208,47.003 L77.208,77.044 C77.208,78.183 78.287,79.113 79.601,79.113 L95.238,79.113 C96.542,79.113 97.621,78.183 97.621,77.044 L97.621,3.88 C97.621,2.739 96.542,1.91 95.238,1.91 L79.601,1.91 C78.287,1.91 77.208,2.739 77.208,3.88 L77.208,31.525 L47.726,31.525 L47.726,3.88 C47.726,2.739 46.649,1.91 45.342,1.91 L29.705,1.91 C28.393,1.91 27.325,2.739 27.325,3.88 L27.325,77.044 C27.325,78.183 28.393,79.113 29.705,79.113"
             id="ihe-h" />
          <path
             d="M20.739,3.88 C20.739,2.739 19.787,1.91 18.468,1.91 L2.473,1.91 C1.162,1.91 0.329,2.739 0.329,3.88 L0.329,77.044 C0.329,78.183 1.162,79.113 2.473,79.113 L18.468,79.113 C19.787,79.113 20.739,78.183 20.739,77.044 L20.739,3.88"
             id="ihe-i" />
        </g>
      </g>
    </g>
  </g>
</svg>
